<svg xmlns="http://www.w3.org/2000/svg" viewBox="0 0 329.74 32.78"><defs><style>.cls-1{fill:#009fe3;}.cls-2{fill:#36a9e1;}.cls-3{fill:#fff;}</style></defs><g id="Capa_2" data-name="Capa 2"><g id="Capa_1-2" data-name="Capa 1"><path class="cls-1" d="M6.73,26.52Q5,23,3.25,18.51A100.35,100.35,0,0,1,0,8.8H4.37c.25,1,.54,2.07.87,3.2s.68,2.29,1,3.43.76,2.24,1.16,3.31.76,2,1.1,2.9c.34-.86.71-1.82,1.09-2.9s.77-2.17,1.14-3.31.73-2.28,1.07-3.43.64-2.2.89-3.2H17Q15.5,14,13.72,18.51t-3.48,8Z"/><path class="cls-1" d="M21.13,17.75a11.17,11.17,0,0,1,.7-4.1,8.62,8.62,0,0,1,1.84-2.93A7.6,7.6,0,0,1,26.31,9a8.12,8.12,0,0,1,3.05-.6,7.32,7.32,0,0,1,5.71,2.27c1.36,1.52,2,3.77,2,6.78,0,.22,0,.48,0,.76s0,.54-.05.76H25.37a4.66,4.66,0,0,0,1.5,3.3,5.75,5.75,0,0,0,3.88,1.17,12.89,12.89,0,0,0,2.73-.27,10.46,10.46,0,0,0,1.94-.58L36,25.91a6.92,6.92,0,0,1-.93.35,11.72,11.72,0,0,1-1.36.34c-.51.1-1.06.19-1.64.25a15.26,15.26,0,0,1-1.8.11,10.92,10.92,0,0,1-4.06-.7,7.54,7.54,0,0,1-2.85-1.93,7.88,7.88,0,0,1-1.65-2.91A11.63,11.63,0,0,1,21.13,17.75ZM33,15.92a5.32,5.32,0,0,0-.24-1.61A4,4,0,0,0,32.09,13,3.2,3.2,0,0,0,31,12.11a3.47,3.47,0,0,0-1.57-.32,3.6,3.6,0,0,0-1.66.35,3.72,3.72,0,0,0-1.2.93,4.36,4.36,0,0,0-.77,1.32,7.42,7.42,0,0,0-.37,1.53Z"/><path class="cls-1" d="M43,17.75a11,11,0,0,1,.7-4.1,8.47,8.47,0,0,1,1.84-2.93A7.6,7.6,0,0,1,48.19,9a8.08,8.08,0,0,1,3.05-.6A7.32,7.32,0,0,1,57,10.63c1.36,1.52,2,3.77,2,6.78,0,.22,0,.48,0,.76s0,.54,0,.76H47.24a4.71,4.71,0,0,0,1.51,3.3,5.71,5.71,0,0,0,3.88,1.17,12.73,12.73,0,0,0,2.72-.27,10.36,10.36,0,0,0,1.95-.58l.54,3.36a6,6,0,0,1-.93.35,11.52,11.52,0,0,1-1.35.34c-.51.1-1.06.19-1.65.25a15,15,0,0,1-1.79.11,10.88,10.88,0,0,1-4.06-.7,7.46,7.46,0,0,1-2.85-1.93,7.9,7.9,0,0,1-1.66-2.91A11.92,11.92,0,0,1,43,17.75ZM54.9,15.92a5.32,5.32,0,0,0-.24-1.61A3.79,3.79,0,0,0,54,13a3.08,3.08,0,0,0-1.11-.88,3.51,3.51,0,0,0-1.58-.32,3.65,3.65,0,0,0-1.66.35,4,4,0,0,0-1.2.93,4.33,4.33,0,0,0-.76,1.32,6.83,6.83,0,0,0-.37,1.53Z"/><path class="cls-1" d="M76,12.5a12.71,12.71,0,0,0-1.41-.36A10.54,10.54,0,0,0,72.47,12a8.33,8.33,0,0,0-1.44.14,8.08,8.08,0,0,0-1.06.24V26.52h-4.1V9.65a23.31,23.31,0,0,1,3-.83,18.49,18.49,0,0,1,4-.39c.27,0,.58,0,1,.05s.72.08,1.08.14.71.12,1,.2.61.15.81.22Z"/><path class="cls-1" d="M81.85,4.13,86,3.45V8.8h6.3v3.43H86v7.21a5.26,5.26,0,0,0,.68,3,2.68,2.68,0,0,0,2.3.91,7.35,7.35,0,0,0,2-.24,10.66,10.66,0,0,0,1.37-.44L93,26a13.22,13.22,0,0,1-1.86.63,10.33,10.33,0,0,1-2.71.32,8.56,8.56,0,0,1-3.17-.51,4.61,4.61,0,0,1-2-1.47,5.71,5.71,0,0,1-1-2.34,14,14,0,0,1-.31-3.13Z"/><path class="cls-1" d="M103.32,3.62a2.37,2.37,0,0,1-.74,1.83,2.56,2.56,0,0,1-1.76.68A2.6,2.6,0,0,1,99,5.45a2.37,2.37,0,0,1-.74-1.83A2.4,2.4,0,0,1,99,1.76a2.6,2.6,0,0,1,1.8-.68,2.56,2.56,0,0,1,1.76.68A2.4,2.4,0,0,1,103.32,3.62Zm-.44,22.9H98.79V8.8h4.09Z"/><path class="cls-1" d="M109.66,17.75a11.18,11.18,0,0,1,.69-4.1,8.49,8.49,0,0,1,1.85-2.93A7.42,7.42,0,0,1,114.84,9a8.07,8.07,0,0,1,3-.6,7.32,7.32,0,0,1,5.71,2.27c1.37,1.52,2,3.77,2,6.78,0,.22,0,.48,0,.76s0,.54-.05.76H113.89a4.63,4.63,0,0,0,1.51,3.3,5.7,5.7,0,0,0,3.87,1.17,12.82,12.82,0,0,0,2.73-.27,10.85,10.85,0,0,0,2-.58l.54,3.36a6.92,6.92,0,0,1-.93.35,11.72,11.72,0,0,1-1.36.34c-.51.1-1,.19-1.64.25a15.13,15.13,0,0,1-1.8.11,10.92,10.92,0,0,1-4.06-.7,7.42,7.42,0,0,1-2.84-1.93,7.77,7.77,0,0,1-1.66-2.91A11.92,11.92,0,0,1,109.66,17.75Zm11.88-1.83a5.32,5.32,0,0,0-.24-1.61,3.62,3.62,0,0,0-.69-1.32,3.11,3.11,0,0,0-1.12-.88,3.47,3.47,0,0,0-1.57-.32,3.62,3.62,0,0,0-1.66.35,3.83,3.83,0,0,0-1.2.93,4.36,4.36,0,0,0-.77,1.32,7.42,7.42,0,0,0-.37,1.53Z"/><path class="cls-1" d="M132.51,9.38a28.06,28.06,0,0,1,3.09-.64,25.65,25.65,0,0,1,4.19-.31,9.78,9.78,0,0,1,3.63.59,5.75,5.75,0,0,1,2.32,1.66A6.5,6.5,0,0,1,147,13.26a14.72,14.72,0,0,1,.35,3.3v10h-4.1V17.2a13.91,13.91,0,0,0-.18-2.42,4.39,4.39,0,0,0-.61-1.62,2.43,2.43,0,0,0-1.15-.92,4.91,4.91,0,0,0-1.78-.29,13.39,13.39,0,0,0-1.63.11c-.56.06-1,.12-1.25.17V26.52h-4.1Z"/><path class="cls-2" d="M155.41,0h8.39V3.25h-4.53V29.53h4.53v3.25h-8.39Z"/><path class="cls-2" d="M172,27a17.36,17.36,0,0,1-1.88-.11c-.65-.08-1.26-.19-1.83-.31s-1.1-.26-1.58-.41a5.53,5.53,0,0,1-1.08-.42l.81-3.49a15.7,15.7,0,0,0,2.07.76,11.09,11.09,0,0,0,3.35.43,5.88,5.88,0,0,0,3.86-1,3.49,3.49,0,0,0,1.19-2.76,3.28,3.28,0,0,0-1.71-3.07,5.75,5.75,0,0,0-1.83-.64,11.83,11.83,0,0,0-2.19-.19h-1.39V12.46h1.7a8.43,8.43,0,0,0,1.57-.15,4.3,4.3,0,0,0,1.44-.54,3.23,3.23,0,0,0,1.05-1,3.09,3.09,0,0,0,.41-1.66,2.83,2.83,0,0,0-1.1-2.34,3.16,3.16,0,0,0-1.14-.54A5,5,0,0,0,172.34,6a7.37,7.37,0,0,0-2.71.46,11.41,11.41,0,0,0-2.1,1l-1.49-3a12.57,12.57,0,0,1,1.15-.64,14.55,14.55,0,0,1,1.51-.65,12.44,12.44,0,0,1,1.78-.49,11.92,11.92,0,0,1,5.38.29,6.33,6.33,0,0,1,2.35,1.34,5.34,5.34,0,0,1,1.39,2,6.86,6.86,0,0,1,.46,2.56,5,5,0,0,1-.9,2.91,5.8,5.8,0,0,1-2.32,2,6.61,6.61,0,0,1,3,2.14,5.9,5.9,0,0,1,1.21,3.82,7.68,7.68,0,0,1-.55,2.9,5.88,5.88,0,0,1-1.66,2.3,8.24,8.24,0,0,1-2.82,1.53A13.29,13.29,0,0,1,172,27Z"/><path class="cls-2" d="M183.38,32.78V29.53h4.5V3.25h-4.5V0h8.4V32.78Z"/><path class="cls-1" d="M202.14,24.28a2.53,2.53,0,0,1-.8,1.93,2.83,2.83,0,0,1-3.84,0,2.55,2.55,0,0,1-.78-1.93,2.61,2.61,0,0,1,.78-2,2.81,2.81,0,0,1,3.84,0A2.59,2.59,0,0,1,202.14,24.28Z"/><path class="cls-3" d="M211,23.57a5.4,5.4,0,0,0,2.37-.39,1.39,1.39,0,0,0,.74-1.34,1.72,1.72,0,0,0-.79-1.45,11.77,11.77,0,0,0-2.63-1.26,22.22,22.22,0,0,1-2-.86A6.94,6.94,0,0,1,207,17.2,4.27,4.27,0,0,1,206,15.73a5.15,5.15,0,0,1-.39-2.12,4.64,4.64,0,0,1,1.79-3.84,7.72,7.72,0,0,1,4.88-1.41,15.14,15.14,0,0,1,3,.29,14,14,0,0,1,2.13.56l-.74,3.32a10.14,10.14,0,0,0-4.17-.81,4.28,4.28,0,0,0-2,.42,1.39,1.39,0,0,0-.78,1.3,1.73,1.73,0,0,0,.16.78,1.6,1.6,0,0,0,.52.63,6.34,6.34,0,0,0,1,.58c.41.19.9.38,1.49.59a22,22,0,0,1,2.47,1.06,6.94,6.94,0,0,1,1.68,1.19,4,4,0,0,1,1,1.51,5.82,5.82,0,0,1,.31,2,4.38,4.38,0,0,1-1.88,3.84A9.34,9.34,0,0,1,210.94,27a14.68,14.68,0,0,1-3.76-.39,18.92,18.92,0,0,1-2-.63l.71-3.42a17,17,0,0,0,2.18.71A11.1,11.1,0,0,0,211,23.57Z"/><path class="cls-3" d="M221,17.75a11.17,11.17,0,0,1,.7-4.1,8.62,8.62,0,0,1,1.84-2.93A7.6,7.6,0,0,1,226.21,9a8.12,8.12,0,0,1,3-.6A7.32,7.32,0,0,1,235,10.63c1.36,1.52,2.05,3.77,2.05,6.78,0,.22,0,.48,0,.76s0,.54-.05.76H225.27a4.66,4.66,0,0,0,1.5,3.3,5.75,5.75,0,0,0,3.88,1.17,12.89,12.89,0,0,0,2.73-.27,10.85,10.85,0,0,0,2-.58l.54,3.36a6.92,6.92,0,0,1-.93.35,11.72,11.72,0,0,1-1.36.34c-.51.1-1.05.19-1.64.25a15.26,15.26,0,0,1-1.8.11,10.92,10.92,0,0,1-4.06-.7,7.42,7.42,0,0,1-2.84-1.93,7.77,7.77,0,0,1-1.66-2.91A11.63,11.63,0,0,1,221,17.75Zm11.89-1.83a5.32,5.32,0,0,0-.24-1.61A3.77,3.77,0,0,0,232,13a3.2,3.2,0,0,0-1.12-.88,3.47,3.47,0,0,0-1.57-.32,3.62,3.62,0,0,0-1.66.35,3.72,3.72,0,0,0-1.2.93,4.36,4.36,0,0,0-.77,1.32,7.42,7.42,0,0,0-.37,1.53Z"/><path class="cls-3" d="M251.44,12.5a11.89,11.89,0,0,0-1.4-.36A10.61,10.61,0,0,0,248,12a8.24,8.24,0,0,0-1.44.14,7.94,7.94,0,0,0-1.07.24V26.52h-4.1V9.65a23,23,0,0,1,3-.83,18.39,18.39,0,0,1,3.94-.39c.27,0,.59,0,1,.05s.72.08,1.08.14.71.12,1.05.2.61.15.82.22Z"/><path class="cls-3" d="M260.17,26.52q-1.69-3.49-3.48-8T253.44,8.8h4.37c.25,1,.54,2.07.87,3.2s.68,2.29,1.05,3.43.76,2.24,1.16,3.31.76,2,1.1,2.9c.34-.86.71-1.82,1.09-2.9s.77-2.17,1.14-3.31.73-2.28,1.07-3.43.64-2.2.89-3.2h4.23q-1.47,5.19-3.25,9.71t-3.48,8Z"/><path class="cls-3" d="M278,3.62a2.33,2.33,0,0,1-.74,1.83,2.54,2.54,0,0,1-1.76.68,2.6,2.6,0,0,1-1.8-.68A2.37,2.37,0,0,1,273,3.62a2.4,2.4,0,0,1,.74-1.86,2.6,2.6,0,0,1,1.8-.68,2.54,2.54,0,0,1,1.76.68A2.37,2.37,0,0,1,278,3.62Zm-.44,22.9h-4.09V8.8h4.09Z"/><path class="cls-3" d="M281.79,17.68A10.81,10.81,0,0,1,282.4,14a8.58,8.58,0,0,1,1.74-3,8.07,8.07,0,0,1,2.76-2,8.92,8.92,0,0,1,3.66-.72,12.39,12.39,0,0,1,4.74.92l-.88,3.35a10.17,10.17,0,0,0-1.61-.51,9,9,0,0,0-1.91-.2,4.46,4.46,0,0,0-3.66,1.51A6.43,6.43,0,0,0,286,17.68a6.7,6.7,0,0,0,1.18,4.18c.79,1,2.12,1.54,4,1.54a10.82,10.82,0,0,0,2.06-.2,10.1,10.1,0,0,0,1.76-.51l.58,3.39a9.35,9.35,0,0,1-2.05.61,14.6,14.6,0,0,1-2.83.27,10.27,10.27,0,0,1-3.94-.7A7.35,7.35,0,0,1,284,24.33a8,8,0,0,1-1.64-2.94A12.28,12.28,0,0,1,281.79,17.68Z"/><path class="cls-3" d="M297.77,17.75a11.18,11.18,0,0,1,.69-4.1,8.64,8.64,0,0,1,1.85-2.93A7.6,7.6,0,0,1,303,9a8.08,8.08,0,0,1,3.05-.6,7.28,7.28,0,0,1,5.7,2.27c1.37,1.52,2.05,3.77,2.05,6.78,0,.22,0,.48,0,.76s0,.54-.05.76H302a4.71,4.71,0,0,0,1.51,3.3,5.71,5.71,0,0,0,3.88,1.17,12.73,12.73,0,0,0,2.72-.27,10.36,10.36,0,0,0,1.95-.58l.54,3.36a6,6,0,0,1-.93.35,11.52,11.52,0,0,1-1.35.34c-.51.1-1.06.19-1.65.25a15,15,0,0,1-1.79.11,11,11,0,0,1-4.07-.7A7.42,7.42,0,0,1,300,24.33a7.9,7.9,0,0,1-1.66-2.91A11.92,11.92,0,0,1,297.77,17.75Zm11.89-1.83a5.32,5.32,0,0,0-.24-1.61,3.79,3.79,0,0,0-.7-1.32,3.08,3.08,0,0,0-1.11-.88,3.51,3.51,0,0,0-1.58-.32,3.65,3.65,0,0,0-1.66.35,4,4,0,0,0-1.2.93,4.33,4.33,0,0,0-.76,1.32,6.83,6.83,0,0,0-.37,1.53Z"/><path class="cls-3" d="M322.52,23.57a5.34,5.34,0,0,0,2.37-.39,1.38,1.38,0,0,0,.75-1.34,1.73,1.73,0,0,0-.8-1.45,11.65,11.65,0,0,0-2.62-1.26,21.12,21.12,0,0,1-2.05-.86,6.74,6.74,0,0,1-1.61-1.07,4.14,4.14,0,0,1-1.06-1.47,5.15,5.15,0,0,1-.39-2.12,4.61,4.61,0,0,1,1.79-3.84,7.7,7.7,0,0,1,4.88-1.41,15.14,15.14,0,0,1,3,.29,14,14,0,0,1,2.13.56l-.74,3.32a10.69,10.69,0,0,0-1.73-.56,10.41,10.41,0,0,0-2.44-.25,4.25,4.25,0,0,0-2,.42,1.39,1.39,0,0,0-.78,1.3,1.87,1.87,0,0,0,.15.78,1.63,1.63,0,0,0,.53.63,5.5,5.5,0,0,0,1,.58c.41.19.9.38,1.49.59a22.79,22.79,0,0,1,2.47,1.06,6.94,6.94,0,0,1,1.68,1.19,4,4,0,0,1,1,1.51,5.82,5.82,0,0,1,.31,2,4.38,4.38,0,0,1-1.88,3.84A9.34,9.34,0,0,1,322.49,27a14.68,14.68,0,0,1-3.76-.39,19.31,19.31,0,0,1-2-.63l.71-3.42a17.16,17.16,0,0,0,2.19.71A11.07,11.07,0,0,0,322.52,23.57Z"/></g></g></svg>