<svg xmlns="http://www.w3.org/2000/svg" viewBox="0 0 288.46 46.19"><defs><style>.cls-1{fill:#fff;}</style></defs><g id="Capa_2" data-name="Capa 2"><g id="Capa_1-2" data-name="Capa 1"><path class="cls-1" d="M7.23,13l9.25,26.62L25.73,13h7.18L20.46,45.66H12.39L0,13Z"/><path class="cls-1" d="M56.5,46.19c-9.36,0-16.3-6.64-16.3-16.9s6.64-16.84,16.3-16.84c9.31,0,15.9,6.47,15.9,16.07a20.52,20.52,0,0,1-.24,3.32h-25A9,9,0,0,0,56.5,40.5c4.16,0,6.47-2,7.71-4.57h7.3C69.67,41.63,64.51,46.19,56.5,46.19Zm-9.25-19.8H65.34c-.12-5-4.09-8.25-9.13-8.25C51.64,18.14,48,21.23,47.25,26.39Z"/><path class="cls-1" d="M97.53,46.19c-9.37,0-16.3-6.64-16.3-16.9s6.64-16.84,16.3-16.84c9.31,0,15.89,6.47,15.89,16.07a21.71,21.71,0,0,1-.23,3.32h-25a9,9,0,0,0,9.31,8.66c4.15,0,6.46-2,7.71-4.57h7.29C110.69,41.63,105.54,46.19,97.53,46.19Zm-9.25-19.8h18.09c-.12-5-4.1-8.25-9.14-8.25C92.67,18.14,89,21.23,88.28,26.39Z"/><path class="cls-1" d="M131.27,45.66h-6.76V13h6.76v4.74c1.89-3.26,5.15-5.28,9.78-5.28v7h-1.72c-5,0-8.06,2.07-8.06,9Z"/><path class="cls-1" d="M152.79,18.5h-3.86V13h3.86V4.86h6.82V13h7.94V18.5h-7.94V36.59c0,2.43.94,3.43,3.79,3.43h4.15v5.64h-5.34c-5.81,0-9.42-2.43-9.42-9.07Z"/><path class="cls-1" d="M177.33,4.33a4.3,4.3,0,1,1,8.6,0,4.3,4.3,0,1,1-8.6,0Zm.89,8.66H185V45.66h-6.76Z"/><path class="cls-1" d="M212.37,46.19c-9.37,0-16.3-6.64-16.3-16.9s6.64-16.84,16.3-16.84c9.31,0,15.89,6.47,15.89,16.07a21.71,21.71,0,0,1-.23,3.32h-25a9,9,0,0,0,9.31,8.66c4.15,0,6.47-2,7.71-4.57h7.29C225.54,41.63,220.38,46.19,212.37,46.19Zm-9.25-19.8h18.09c-.12-5-4.09-8.25-9.13-8.25C207.51,18.14,203.83,21.23,203.12,26.39Z"/><path class="cls-1" d="M262.53,27.39c0-6-3.26-9.07-8.18-9.07s-8.24,3.09-8.24,9.07V45.66h-6.76V13h6.76v3.73a12.55,12.55,0,0,1,9.72-4.27c7.65,0,13.4,4.8,13.4,13.94V45.66h-6.7Z"/><rect class="cls-1" x="280.09" y="37.29" width="6.39" height="10.35" rx="3.2" transform="translate(325.75 -240.83) rotate(90)"/></g></g></svg>